<svg preserveAspectRatio="xMidYMid meet" data-bbox="10 10 175 40" xmlns="http://www.w3.org/2000/svg" viewBox="10 10 175 40" height="60" width="195" data-type="color" role="img" aria-label="Logo Genomawork">
    <g>
        <path fill="#FF0087" d="M181.966 33.297c.46-.01.88.129 1.267.365.725.44 1.157 1.09 1.297 1.934.059.36.057.727-.056 1.081-.026.017-.033.048-.042.074a2.397 2.397 0 0 1-.781 1.053 2.442 2.442 0 0 1-1.833.5 2.375 2.375 0 0 1-1.443-.714 2.433 2.433 0 0 1-.699-1.444c-.066-.529.004-1.036.253-1.503.35-.662.882-1.1 1.61-1.281.077-.02.157-.04.234-.062h.045a.345.345 0 0 1 .148-.003Z" clip-rule="evenodd" fill-rule="evenodd" data-color="1"></path>
        <path fill="#FF0087" d="M155.416 19.875c.244-.126.511-.174.779-.19.83-.053 1.553.214 2.137.821.568.593.805 1.315.754 2.14-.005.07-.005.145-.038.214-.009.016-.019.03-.026.045a2.589 2.589 0 0 1-.8 1.131 2.41 2.41 0 0 1-1.837.527c-.688-.076-1.251-.408-1.676-.965a2.474 2.474 0 0 1-.495-1.846 2.48 2.48 0 0 1 .915-1.665c.08-.067.181-.105.244-.193l-.002.002c.019 0 .035-.002.045-.021Z" clip-rule="evenodd" fill-rule="evenodd" data-color="1"></path>
        <path fill="#FF0087" d="M169.285 20.075a1.886 1.886 0 0 1 1.732.093c.699.395 1.04 1.022 1.054 1.832a.763.763 0 0 1-.04.288c-.028.026-.031.064-.042.097a1.788 1.788 0 0 1-.552.77c-.429.343-.917.486-1.462.402a1.77 1.77 0 0 1-1.173-.69 1.84 1.84 0 0 1-.38-1.425c.054-.405.22-.75.49-1.048.096-.105.216-.179.31-.283h-.002c.018 0 .035-.005.044-.024l-.002.002c.007 0 .016-.007.023-.014Z" clip-rule="evenodd" fill-rule="evenodd" data-color="1"></path>
        <path fill="#FF0087" d="M175.032 29.61c.239-.114.495-.133.753-.131.894.007 1.767.674 1.94 1.722.047.286.038.574-.054.853-.054-.02-.042.036-.054.055-.382.743-1.166 1.15-1.973 1.012a1.858 1.858 0 0 1-1.537-1.694 1.851 1.851 0 0 1 .53-1.493c.108-.112.242-.19.352-.3v.002c.017-.002.036-.007.043-.026Z" clip-rule="evenodd" fill-rule="evenodd" data-color="1"></path>
        <path fill="#FF0087" d="M166.908 35.246a1.814 1.814 0 0 1 1.155-.298 1.94 1.94 0 0 1 1.335.624c.408.438.598.96.551 1.565-.089.284-.206.553-.406.774-.431.479-.966.698-1.612.631a1.738 1.738 0 0 1-1.065-.497 1.843 1.843 0 0 1-.568-1.57 1.92 1.92 0 0 1 .392-.98c.052-.066.134-.111.153-.204v.002c.018 0 .035-.002.044-.023l-.002.002.023-.026Z" clip-rule="evenodd" fill-rule="evenodd" data-color="1"></path>
        <path fill="#FF0087" d="m164.684 27.585.002.005c-.014.015-.033.029-.044.046a1.857 1.857 0 0 1-.423.53c-.439.37-.941.515-1.502.43a1.806 1.806 0 0 1-1.046-.56 1.928 1.928 0 0 1-.34-2.108c.11-.234.272-.427.436-.62l-.002.003.023-.024-.002.002c.021 0 .037-.005.044-.026.31-.183.65-.25 1.002-.229.747.05 1.314.405 1.683 1.07.234.426.293.884.209 1.362-.005.022-.014.04-.024.062-.016.017-.014.038-.016.058Z" clip-rule="evenodd" fill-rule="evenodd" data-color="1"></path>
        <path fill="#FF0087" d="M182.702 41.52c.237-.14.498-.183.765-.169a1.607 1.607 0 0 1 1.467 1.17c.07.24.089.486.035.733-.023.017-.016.043-.019.067l.003-.002c-.038.023-.045.064-.061.1-.244.474-.634.755-1.15.814a1.454 1.454 0 0 1-1.549-.948c-.167-.45-.124-.89.11-1.312.089-.16.228-.27.336-.41l-.002.002c.007-.007.016-.014.023-.023l-.002.002c.016-.005.035-.005.044-.024Z" clip-rule="evenodd" fill-rule="evenodd" data-color="1"></path>
        <path fill="#FF0087" d="M155.389 14.59c.322 0 .598.13.85.323.581.453.769 1.289.445 1.956-.007.016-.018.028-.03.045-.024.007-.026.026-.026.045v-.002c-.047 0-.047.03-.045.067h.003c-.054-.008-.075.038-.103.069a1.441 1.441 0 0 1-1.864.174 1.482 1.482 0 0 1-.584-1.553c.106-.42.343-.744.718-.953.197-.107.408-.174.636-.172Z" clip-rule="evenodd" fill-rule="evenodd" data-color="1"></path>
        <path fill="#FF0087" d="M167.816 13.25c.439-.32 1.153-.323 1.657 0 .38.244.615.594.713 1.037.01.04.005.086.007.131a1.19 1.19 0 0 1-.018.26 1.458 1.458 0 0 1-1.756 1.155c-.565-.133-1.041-.655-1.105-1.244-.049-.469.073-.869.39-1.21.021-.023.049-.042.047-.08v.002c.018 0 .035-.002.044-.024l-.002.002c.007-.014.016-.021.023-.028Z" clip-rule="evenodd" fill-rule="evenodd" data-color="1"></path>
        <path fill="#FF0087" d="M168.746 42.923c.497-.35 1.297-.298 1.79.12.436.366.624.842.584 1.412-.002.04-.016.078-.023.116-.005.015-.012.029-.017.046l.003-.003c-.115.184-.216.372-.388.517a1.445 1.445 0 0 1-1.597.21 1.492 1.492 0 0 1-.653-1.984c.071-.143.176-.255.256-.389v.003c.007-.007.014-.017.023-.024l-.002.002c.007-.01.017-.019.024-.026Z" clip-rule="evenodd" fill-rule="evenodd" data-color="1"></path>
        <path fill="#FF0087" d="M168.832 28.119c.333-.134.666-.12.995.002.493.184.814.541.96 1.056a.28.28 0 0 1 .011.107c.038.524-.129.96-.544 1.286a1.394 1.394 0 0 1-2.248-1.127c-.005-.417.148-.755.432-1.048.098-.102.23-.16.331-.257l.004.002c.024.003.047.003.059-.021Z" clip-rule="evenodd" fill-rule="evenodd" data-color="1"></path>
        <path fill="#FF9CD1" d="M171.474 43.416c-.037.007-.042-.021-.049-.045a1.084 1.084 0 0 0-.284-.458c-.08-.08.028-.088.056-.107.39-.255.782-.505 1.174-.755 1.081-.693 2.163-1.386 3.245-2.077 1.14-.729 2.281-1.455 3.421-2.184.059-.038.078-.022.101.033a.827.827 0 0 0 .237.336c.07.057.063.093-.012.14-.443.286-.882.577-1.323.865-.462.303-.925.603-1.389.903l-3.905 2.534c-.406.262-.812.524-1.218.789-.021.005-.037.016-.054.026Z" clip-rule="evenodd" fill-rule="evenodd" data-color="2"></path>
        <path fill="#FF9CD1" d="M167.124 15.954c-.002.038-.026.05-.047.062l-1.95 1.232c-.636.4-1.269.8-1.905 1.198-.852.536-1.706 1.07-2.558 1.605-.444.28-.887.555-1.328.834-.066.043-.106.05-.136-.033a.691.691 0 0 0-.211-.3c-.071-.06-.061-.098.016-.146.565-.352 1.131-.71 1.697-1.064l2.147-1.344 2.496-1.56c.472-.296.944-.586 1.413-.884.061-.038.089-.038.117.034a.797.797 0 0 0 .211.314.301.301 0 0 1 .038.052Z" clip-rule="evenodd" fill-rule="evenodd" data-color="2"></path>
        <path fill="#B4005F" d="M155.372 19.894c-.065.086-.164.127-.244.193a2.471 2.471 0 0 0-.915 1.665c-.08.677.08 1.3.495 1.846.427.558.988.891 1.676.965.673.074 1.297-.088 1.837-.526.373-.303.631-.684.8-1.132.005-.017.017-.03.026-.045-.04.343-.162.655-.333.95-.542.932-1.593 1.456-2.631 1.318-1.232-.167-2.137-1.053-2.346-2.294-.2-1.191.479-2.449 1.577-2.918.016-.012.037-.015.058-.022Z" clip-rule="evenodd" fill-rule="evenodd" data-color="3"></path>
        <path fill="#B4005F" d="M181.773 33.298a8.783 8.783 0 0 1-.234.062c-.728.178-1.26.619-1.61 1.281-.249.47-.319.974-.253 1.503.07.565.309 1.046.699 1.444.396.405.88.645 1.443.714a2.44 2.44 0 0 0 1.833-.5c.359-.271.614-.631.781-1.053.012-.026.016-.057.042-.074a2.36 2.36 0 0 1-.49 1.034c-.714.87-1.629 1.217-2.713.967-1.103-.255-1.79-.988-2.037-2.11-.328-1.5.707-3.011 2.199-3.245.11-.016.225-.035.34-.023Z" clip-rule="evenodd" fill-rule="evenodd" data-color="3"></path>
        <path fill="#FF9CD1" d="M157.13 15.299c-.042 0-.044-.036-.054-.06a.81.81 0 0 0-.237-.333c-.07-.057-.042-.086.019-.122.521-.321 1.042-.648 1.56-.972a830.04 830.04 0 0 1 2.225-1.381c.49-.305.981-.605 1.471-.912.064-.038.092-.04.11.038a.501.501 0 0 0 .181.29c.08.065.049.098-.021.143a2004.047 2004.047 0 0 1-4.2 2.646c-.331.208-.66.415-.988.625a.347.347 0 0 0-.066.038Z" clip-rule="evenodd" fill-rule="evenodd" data-color="2"></path>
        <path fill="#B4005F" d="M161.767 25.313c-.164.193-.323.386-.436.62a1.928 1.928 0 0 0 .34 2.108c.291.302.638.497 1.047.56a1.812 1.812 0 0 0 1.501-.43 1.84 1.84 0 0 0 .423-.53c.009-.02.028-.032.044-.046a1.865 1.865 0 0 1-.65 1.055c-1.201 1.015-2.998.343-3.282-1.224-.143-.8.244-1.667.934-2.084.025-.015.047-.04.079-.029Z" clip-rule="evenodd" fill-rule="evenodd" data-color="3"></path>
        <path fill="#B4005F" d="M166.842 35.291c-.016.093-.101.138-.152.205-.221.29-.352.612-.392.979-.063.62.134 1.143.568 1.57.293.288.65.455 1.065.497.645.067 1.178-.152 1.612-.63.2-.222.317-.492.406-.775-.021.836-.683 1.639-1.521 1.841-1.142.274-2.238-.44-2.466-1.612-.15-.767.193-1.61.831-2.051.016-.01.033-.017.049-.024Z" clip-rule="evenodd" fill-rule="evenodd" data-color="3"></path>
        <path fill="#B4005F" d="M174.99 29.632c-.108.11-.242.188-.352.3-.401.417-.579.92-.53 1.493a1.86 1.86 0 0 0 1.537 1.694c.807.14 1.593-.267 1.973-1.013.01-.019 0-.073.054-.054-.204.738-.671 1.226-1.391 1.436-1.159.338-2.312-.4-2.539-1.608-.169-.898.328-1.858 1.154-2.222.031-.012.059-.031.094-.026Z" clip-rule="evenodd" fill-rule="evenodd" data-color="3"></path>
        <path fill="#FF9CD1" d="M170.219 35.75c-.035.003-.042-.016-.052-.037a1.107 1.107 0 0 0-.244-.372c-.056-.057.003-.074.033-.093.242-.162.486-.326.73-.486.425-.28.849-.56 1.274-.838.507-.334 1.014-.665 1.518-1 .059-.041.09-.041.12.028a.896.896 0 0 0 .237.307c.045.038.056.067-.005.105l-1.858 1.231c-.5.331-.997.663-1.497.991-.068.046-.139.09-.207.136-.016.014-.035.021-.049.029Z" clip-rule="evenodd" fill-rule="evenodd" data-color="2"></path>
        <path fill="#B4005F" d="M169.22 20.116c-.096.102-.216.178-.31.283-.27.298-.436.646-.49 1.048a1.851 1.851 0 0 0 .38 1.425 1.78 1.78 0 0 0 1.173.69 1.826 1.826 0 0 0 1.462-.402 1.79 1.79 0 0 0 .551-.77c.015-.033.015-.071.043-.097-.038.36-.181.676-.406.948-.559.674-1.274.92-2.107.69-.824-.226-1.31-.807-1.455-1.657a2.033 2.033 0 0 1 1.06-2.12c.031-.02.061-.045.099-.038Z" clip-rule="evenodd" fill-rule="evenodd" data-color="3"></path>
        <path fill="#FF9CD1" d="m168.222 23.727-.056.038c-.997.65-1.995 1.298-2.994 1.948-.075.05-.158.136-.228.129-.07-.007-.08-.14-.127-.212-.037-.055-.07-.112-.119-.155-.08-.072-.047-.107.026-.153.305-.192.605-.39.91-.588.737-.476 1.471-.953 2.208-1.43.052-.032.089-.05.117.032a.932.932 0 0 0 .221.333c.014.02.026.038.042.058Z" clip-rule="evenodd" fill-rule="evenodd" data-color="2"></path>
        <path fill="#FF0087" d="M155.352 10.226c.298-.217.739-.2 1.046.04.315.245.449.674.317 1.012-.026.01-.035.034-.051.053-.23.293-.524.429-.892.338-.594-.143-.845-.857-.481-1.35.016-.024.04-.043.037-.077v.003l.024-.02Z" clip-rule="evenodd" fill-rule="evenodd" data-color="1"></path>
        <path fill="#FF0087" d="M162.891 10.175c.39-.324 1.173-.216 1.403.47a.804.804 0 0 1 .021.483c-.016.01-.016.029-.018.046l.002-.003c-.014.012-.031.022-.04.033-.209.308-.495.434-.859.384-.446-.06-.781-.546-.694-.993.025-.136.096-.248.138-.374v.004l.024-.023v.002a.21.21 0 0 1 .023-.029Z" clip-rule="evenodd" fill-rule="evenodd" data-color="1"></path>
        <path fill="#B4005F" d="M168.7 42.966c-.079.133-.187.248-.255.388a1.489 1.489 0 0 0 .652 1.985 1.446 1.446 0 0 0 1.598-.21c.169-.145.27-.334.387-.517a1.435 1.435 0 0 1-.504.89c-.465.396-.998.499-1.565.291-.571-.207-.92-.636-1.014-1.243-.099-.629.117-1.148.615-1.541.021-.02.044-.057.086-.043Z" clip-rule="evenodd" fill-rule="evenodd" data-color="3"></path>
        <path fill="#B4005F" d="M182.637 41.563c-.108.14-.247.25-.336.41-.235.424-.277.862-.11 1.312.241.65.868 1.03 1.548.948.519-.06.906-.34 1.15-.814.017-.036.026-.076.061-.1a1.47 1.47 0 0 1-.523.905c-.5.429-1.192.507-1.767.207a1.618 1.618 0 0 1-.863-1.591c.049-.538.309-.955.76-1.246.026-.017.047-.04.08-.03Z" clip-rule="evenodd" fill-rule="evenodd" data-color="3"></path>
        <path fill="#B4005F" d="M167.751 13.293c.005.039-.024.06-.047.081-.317.343-.439.744-.39 1.21.064.589.54 1.11 1.106 1.244a1.458 1.458 0 0 0 1.755-1.155.996.996 0 0 0 .019-.26c.051.229.014.45-.052.667-.209.693-.882 1.172-1.575 1.122a1.587 1.587 0 0 1-1.483-1.325c-.105-.612.179-1.288.667-1.584Z" clip-rule="evenodd" fill-rule="evenodd" data-color="3"></path>
        <mask fill="#ffffff" id="02f4b711-e147-4e34-af72-b42e2ab6dc4e_comp-ln0mtx18">
            <path d="M155.389 14.59a1.269 1.269 0 0 0-.636.173c-.375.21-.612.534-.718.953a1.484 1.484 0 0 0 .584 1.553c.587.41 1.354.336 1.863-.174.029-.028.052-.074.104-.069-.235.4-.589.636-1.033.72-.859.161-1.642-.377-1.835-1.244-.223-.998.589-1.975 1.596-1.925.026 0 .049.007.075.012Z" clip-rule="evenodd" fill-rule="evenodd"></path>
        </mask>
        <path fill="#B4005F" d="M155.389 14.59a1.269 1.269 0 0 0-.636.173c-.375.21-.612.534-.718.953a1.484 1.484 0 0 0 .584 1.553c.587.41 1.354.336 1.863-.174.029-.028.052-.074.104-.069-.235.4-.589.636-1.033.72-.859.161-1.642-.377-1.835-1.244-.223-.998.589-1.975 1.596-1.925.026 0 .049.007.075.012Z" clip-rule="evenodd" fill-rule="evenodd" data-color="3"></path>
        <path mask="url(#02f4b711-e147-4e34-af72-b42e2ab6dc4e_comp-ln0mtx18)" fill="#B4005F" d="m155.389 14.59-.01 1 .192-1.984-.182.983Zm-.636.173-.486-.874h-.001l.487.874Zm-.718.953-.97-.244.97.244Zm.584 1.553.573-.82-.573.82Zm1.863-.174.708.707.005-.005-.713-.702Zm.104-.069.862.506.796-1.357-1.566-.145-.092.996Zm-1.033.72-.184-.983h-.001l.185.982Zm-1.835-1.244.977-.217-.001-.001-.976.218Zm1.596-1.925-.05.999.025.001h.025v-1Zm.085-.988a2.269 2.269 0 0 0-1.132.3l.972 1.748c.081-.045.122-.048.14-.048l.02-2Zm-1.133.3a2.454 2.454 0 0 0-1.201 1.583l1.94.488a.456.456 0 0 1 .236-.324l-.975-1.746Zm-1.201 1.583a2.483 2.483 0 0 0 .982 2.617l1.145-1.64a.482.482 0 0 1-.187-.49l-1.94-.487Zm.982 2.617a2.438 2.438 0 0 0 3.143-.287l-1.415-1.414a.439.439 0 0 1-.583.061l-1.145 1.64Zm3.148-.292.053-.058.013-.015.004-.005a.914.914 0 0 1-.771.302l.184-1.99a1.07 1.07 0 0 0-.823.275c-.061.055-.104.107-.113.117-.024.028.002-.003.028-.03l1.425 1.404Zm-1.472-1.277a.467.467 0 0 1-.354.242l.369 1.966a2.46 2.46 0 0 0 1.71-1.196l-1.725-1.012Zm-.355.243c-.302.057-.592-.111-.673-.478l-1.953.434c.304 1.367 1.581 2.276 2.997 2.009l-.371-1.965Zm-.674-.48a.58.58 0 0 1 .131-.498.539.539 0 0 1 .439-.209l.1-1.998c-1.684-.083-2.985 1.516-2.622 3.142l1.952-.436Zm.62-.706a.805.805 0 0 1-.152-.014c-.007-.001-.013-.002-.002 0l.047.01.364-1.967.009.002a1.187 1.187 0 0 0-.266-.03v2Z" data-color="3"></path>
        <path fill="#B4005F" d="M168.771 28.14c-.103.098-.232.155-.33.258-.284.29-.437.63-.432 1.048a1.394 1.394 0 0 0 2.248 1.127c.415-.33.582-.763.544-1.287.092.393.017.76-.185 1.1a1.51 1.51 0 0 1-1.615.713 1.544 1.544 0 0 1-1.201-1.317 1.556 1.556 0 0 1 .91-1.62c.019-.01.04-.014.061-.022Z" clip-rule="evenodd" fill-rule="evenodd" data-color="3"></path>
        <path fill="#B4005F" d="M162.844 10.22c-.042.127-.112.239-.138.374-.089.448.249.932.694.994.366.05.65-.076.859-.384.01-.014.026-.024.04-.033-.077.35-.3.565-.626.667a.909.909 0 0 1-1.052-.42.947.947 0 0 1 .139-1.135c.026-.027.042-.065.084-.062Z" clip-rule="evenodd" fill-rule="evenodd" data-color="3"></path>
        <path fill="#B4005F" d="M155.328 10.244c.004.034-.019.053-.038.077-.363.493-.112 1.207.481 1.35.369.088.662-.045.892-.338.016-.02.026-.045.052-.052-.083.38-.477.678-.887.674a.926.926 0 0 1-.859-.617.94.94 0 0 1 .27-1.032c.025-.026.051-.054.089-.062Z" clip-rule="evenodd" fill-rule="evenodd" data-color="3"></path>
        <path fill="#BC275F" d="M181.966 33.298a.372.372 0 0 0-.148 0 .216.216 0 0 1 .148 0Z" clip-rule="evenodd" fill-rule="evenodd" data-color="4"></path>
        <path fill="#BD2860" d="M156.583 17.025c-.002-.035-.002-.066.043-.066-.009.026-.016.052-.043.066Z" clip-rule="evenodd" fill-rule="evenodd" data-color="5"></path>
        <path fill="#BC285F" d="M184.951 43.32c.002-.023-.007-.05.017-.066 0 .026.005.05-.017.067Z" clip-rule="evenodd" fill-rule="evenodd" data-color="6"></path>
        <path fill="#BC275F" d="M164.684 27.584c.002-.018 0-.04.018-.053.002.02.002.042-.018.053Z" clip-rule="evenodd" fill-rule="evenodd" data-color="4"></path>
        <path fill="#BC285F" d="M169.261 20.092c-.009.018-.024.023-.042.023.005-.025.024-.02.042-.023Z" clip-rule="evenodd" fill-rule="evenodd" data-color="6"></path>
        <path fill="#BD2860" d="M168.83 28.119c-.011.023-.033.02-.054.023.014-.023.034-.02.054-.023Z" clip-rule="evenodd" fill-rule="evenodd" data-color="5"></path>
        <path fill="#BC275F" d="M161.831 25.266c-.007.02-.025.025-.043.025.006-.018.027-.02.043-.025Z" clip-rule="evenodd" fill-rule="evenodd" data-color="4"></path>
        <path fill="#BC285F" d="M175.029 29.61c-.007.02-.024.023-.042.023.004-.025.026-.02.042-.023Z" clip-rule="evenodd" fill-rule="evenodd" data-color="6"></path>
        <path fill="#BC275F" d="M155.411 19.875c-.008.018-.024.02-.041.02.006-.022.026-.02.041-.02Z" clip-rule="evenodd" fill-rule="evenodd" data-color="4"></path>
        <path fill="#BD2860" d="M156.625 16.96c0-.018.003-.037.025-.044l-.025.044Z" clip-rule="evenodd" fill-rule="evenodd" data-color="5"></path>
        <path fill="#BD2860" d="M164.296 11.17c0-.016 0-.033.018-.044 0 .018.002.035-.018.044Z" clip-rule="evenodd" fill-rule="evenodd" data-color="5"></path>
        <path fill="#BC285F" d="M166.885 35.27c-.009.02-.025.023-.043.023.009-.021.023-.028.043-.023Z" clip-rule="evenodd" fill-rule="evenodd" data-color="6"></path>
        <path fill="#BD2860" d="M167.792 13.272c-.009.019-.024.023-.042.023.009-.018.022-.025.042-.023Z" clip-rule="evenodd" fill-rule="evenodd" data-color="5"></path>
        <path fill="#BC285F" d="M182.7 41.52c-.009.019-.027.019-.043.021a.227.227 0 0 0 .043-.02Z" clip-rule="evenodd" fill-rule="evenodd" data-color="6"></path>
        <path fill="#BC285F" d="m171.081 44.616.015-.045c.002.019.002.035-.015.045Z" clip-rule="evenodd" fill-rule="evenodd" data-color="6"></path>
        <path fill="#BD2860" d="M162.89 10.175a.201.201 0 0 1-.023.028c-.002-.018.012-.023.023-.028Z" clip-rule="evenodd" fill-rule="evenodd" data-color="5"></path>
        <path fill="#BC275F" d="m161.787 25.29-.022.022c-.005-.018.011-.018.022-.023Z" clip-rule="evenodd" fill-rule="evenodd" data-color="4"></path>
        <path fill="#BC285F" d="M169.284 20.075c-.007.008-.016.012-.023.02.003-.015.012-.02.023-.02Z" clip-rule="evenodd" fill-rule="evenodd" data-color="6"></path>
        <path fill="#BD2860" d="M167.815 13.25a.518.518 0 0 1-.022.024c0-.017.011-.021.022-.023Z" clip-rule="evenodd" fill-rule="evenodd" data-color="5"></path>
        <path fill="#BC285F" d="M166.907 35.246c-.007.009-.016.016-.022.023 0-.017.011-.019.022-.023Z" clip-rule="evenodd" fill-rule="evenodd" data-color="6"></path>
        <path fill="#BD2860" d="m155.35 10.226-.022.02c0-.014.009-.018.022-.02Z" clip-rule="evenodd" fill-rule="evenodd" data-color="5"></path>
        <path fill="#BC285F" d="M168.744 42.923a.468.468 0 0 1-.022.023c0-.016.011-.02.022-.023Z" clip-rule="evenodd" fill-rule="evenodd" data-color="6"></path>
        <path fill="#BC285F" d="M168.722 42.944c-.006.007-.015.014-.022.023-.009-.023.009-.02.022-.023Z" clip-rule="evenodd" fill-rule="evenodd" data-color="6"></path>
        <path fill="#BD2860" d="M162.868 10.202c-.006.007-.013.016-.022.023-.007-.023.007-.023.022-.023Z" clip-rule="evenodd" fill-rule="evenodd" data-color="5"></path>
        <path fill="#BC285F" d="M182.658 41.541c-.006.007-.015.014-.022.024-.004-.019.009-.021.022-.023Z" clip-rule="evenodd" fill-rule="evenodd" data-color="6"></path>
        <path fill="#FF0087" d="M14.93 48.061c2 0 3.635-.9 3.635-3.275v-.853c0-.37.023-.738.023-.738h-.044c-.68 1.153-1.75 1.822-3.408 1.822-3.205 0-5.136-2.606-5.136-5.974 0-3.344 1.84-5.836 5.021-5.836 2.774 0 3.614 1.73 3.614 1.73h.045s-.024-.163-.024-.37v-1.084h2.114v11.189c0 3.851-2.886 5.328-5.793 5.328-1.387 0-2.818-.393-3.93-.97l.727-1.753c-.002 0 1.429.784 3.156.784Zm3.682-8.994c0-3.044-1.455-3.921-3.25-3.921-2 0-3.135 1.477-3.135 3.852 0 2.422 1.272 4.082 3.341 4.082 1.589 0 3.044-.97 3.044-4.013Z" data-color="1"></path>
        <path fill="#FF0087" d="M30.26 33.207c3.25 0 4.977 2.444 4.977 5.467 0 .3-.068.97-.068.97h-8.384c.112 2.56 1.907 3.85 3.953 3.85 1.976 0 3.41-1.36 3.41-1.36l.908 1.64s-1.704 1.66-4.454 1.66c-3.613 0-6.089-2.654-6.089-6.112-.002-3.716 2.476-6.115 5.747-6.115Zm2.726 4.752c-.068-2.008-1.295-2.975-2.77-2.975-1.683 0-3.047 1.06-3.363 2.975h6.133Z" data-color="1"></path>
        <path fill="#FF0087" d="M39.134 33.483h2.135v1.546c0 .462-.044.853-.044.853h.044a4.68 4.68 0 0 1 4.318-2.675c2.703 0 3.953 1.498 3.953 4.476v7.474h-2.203V38.19c0-1.639-.34-2.93-2.182-2.93-1.75 0-3.159 1.177-3.635 2.861-.136.462-.18.991-.18 1.567v5.467h-2.204V33.483h-.002Z" data-color="1"></path>
        <path fill="#FF0087" d="M59.281 33.207c3.43 0 6.204 2.56 6.204 6.09 0 3.552-2.77 6.137-6.204 6.137-3.43 0-6.204-2.585-6.204-6.136.003-3.53 2.774-6.091 6.204-6.091Zm0 10.288c2.183 0 3.954-1.753 3.954-4.197 0-2.423-1.771-4.152-3.954-4.152-2.158 0-3.954 1.73-3.954 4.152 0 2.444 1.796 4.197 3.954 4.197Z" data-color="1"></path>
        <path fill="#FF0087" d="M69.045 33.483h2.135v1.546c0 .462-.044.853-.044.853h.044c.547-1.36 2.159-2.675 3.954-2.675 1.931 0 3.067.9 3.454 2.654h.045c.636-1.408 2.227-2.654 4.09-2.654 2.59 0 3.794 1.498 3.794 4.476v7.474h-2.203V38.17c0-1.64-.32-2.93-2.047-2.93-1.614 0-2.818 1.384-3.226 2.975-.113.483-.16 1.015-.16 1.615v5.328h-2.203V38.17c0-1.522-.227-2.93-2-2.93-1.68 0-2.862 1.408-3.294 3.068-.112.462-.136.99-.136 1.522v5.328h-2.203V33.483Z" data-color="1"></path>
        <path fill="#FF0087" d="M96.76 37.866h.5v-.207c0-1.915-1.069-2.56-2.523-2.56-1.772 0-3.203 1.13-3.203 1.13l-.909-1.638s1.66-1.384 4.295-1.384c2.91 0 4.545 1.615 4.545 4.566v7.382H97.42v-1.108c0-.53.045-.921.045-.921h-.045s-.932 2.305-3.682 2.305c-1.975 0-3.909-1.222-3.909-3.551-.002-3.852 4.998-4.014 6.93-4.014Zm-2.547 5.767c1.864 0 3.067-1.984 3.067-3.714v-.369h-.568c-1.659 0-4.657.115-4.657 2.216 0 .945.727 1.867 2.158 1.867Z" data-color="1"></path>
        <path fill="#5F5F5F" d="M103.041 33.483h2.339l2.387 8.19c.181.6.272 1.245.296 1.245h.044s.113-.645.296-1.245l2.499-8.166h2.022l2.478 8.166c.181.6.317 1.245.317 1.245h.045s.091-.645.272-1.245l2.407-8.19h2.183l-3.569 11.672h-2.427l-2.386-7.496c-.181-.6-.317-1.27-.317-1.27h-.044s-.136.67-.319 1.27l-2.363 7.496h-2.455l-3.705-11.672Z" data-color="7"></path>
        <path fill="#5F5F5E" d="M129.322 33.207c3.43 0 6.204 2.56 6.204 6.09 0 3.552-2.771 6.137-6.204 6.137-3.431 0-6.204-2.585-6.204-6.136.002-3.53 2.773-6.091 6.204-6.091Zm0 10.288c2.182 0 3.954-1.753 3.954-4.197 0-2.423-1.772-4.152-3.954-4.152-2.159 0-3.954 1.73-3.954 4.152 0 2.444 1.795 4.197 3.954 4.197Z" data-color="8"></path>
        <path fill="#5F5F5E" d="M139.222 33.483h2.135v2.03c0 .483-.044.876-.044.876h.044c.524-1.708 1.864-3.044 3.635-3.044.296 0 .568.046.568.046v2.215s-.296-.07-.636-.07c-1.408 0-2.703 1.015-3.226 2.745-.204.669-.272 1.384-.272 2.098v4.776h-2.204V33.483Z" data-color="8"></path>
        <path fill="#5F5F5E" d="M148.96 28.87h2.203v8.903h1.615l3.135-4.29h2.499l-3.818 5.143v.045l4.249 6.482h-2.567l-3.454-5.49h-1.659v5.49h-2.203V28.869Z" data-color="8"></path>
    </g>
</svg>